<svg width="41" height="42" viewBox="0 0 41 42" fill="none" xmlns="http://www.w3.org/2000/svg">
<path d="M22.0693 14.3895L20.2054 16.1954L18.3416 14.3895C16.3872 12.4958 13.2521 12.6004 11.4282 14.62C9.65847 16.5798 9.41482 19.5152 11.0174 21.6139C11.2143 21.8718 11.408 22.1188 11.5922 22.3449C12.7587 23.7758 15.3037 26.2748 16.5788 27.6159C17.5209 28.6067 18.3677 29.433 19.0057 30.0349C19.6794 30.6705 20.7194 30.6566 21.3944 30.0224C22.5707 28.917 24.3747 27.1953 25.6453 25.8589C26.9205 24.5178 27.6522 23.7758 28.8186 22.3449C29.0029 22.1188 29.1965 21.8718 29.3935 21.6139C30.996 19.5152 30.7524 16.5798 28.9826 14.62C27.1588 12.6004 24.0236 12.4958 22.0693 14.3895Z" stroke="#898989" stroke-width="2.02054" stroke-linecap="round" stroke-linejoin="round"/>
</svg>
