<svg width="24" height="26" viewBox="0 0 24 26" fill="none" xmlns="http://www.w3.org/2000/svg">
<path d="M15.5783 7.10817C15.5783 8.96803 14.0706 10.4757 12.2107 10.4757C10.3509 10.4757 8.84314 8.96803 8.84314 7.10817C8.84314 5.24831 10.3509 3.7406 12.2107 3.7406C14.0706 3.7406 15.5783 5.24831 15.5783 7.10817Z" stroke="#898989" stroke-width="2.02054"/>
<path d="M5.29132 16.2112L6.04111 15.7114C7.86815 14.4934 10.0148 13.8434 12.2107 13.8434C14.4065 13.8434 16.5532 14.4934 18.3802 15.7114L19.13 16.2112C20.0669 16.8358 20.6296 17.8873 20.6296 19.0132V20.6908C20.6296 21.5587 19.926 22.2623 19.0581 22.2623H12.2107H5.36328C4.49535 22.2623 3.79175 21.5587 3.79175 20.6908V19.0132C3.79175 17.8873 4.35447 16.8358 5.29132 16.2112Z" stroke="#898989" stroke-width="2.02054" stroke-linecap="round" stroke-linejoin="round"/>
</svg>
