<svg width="41" height="41" viewBox="0 0 41 41" fill="none" xmlns="http://www.w3.org/2000/svg">
<path d="M22.7187 14.0678L20.8548 15.8738L18.991 14.0678C17.0367 12.1741 13.9015 12.2787 12.0776 14.2984C10.3079 16.2581 10.0642 19.1936 11.6668 21.2923C11.8637 21.5502 12.0574 21.7972 12.2416 22.0232C13.4081 23.4542 15.9531 25.9531 17.2282 27.2942C18.1703 28.285 19.0172 29.1113 19.6551 29.7132C20.3288 30.3488 21.3688 30.335 22.0438 29.7007C23.2202 28.5954 25.0241 26.8736 26.2948 25.5372C27.5699 24.1961 28.3016 23.4542 29.468 22.0232C29.6523 21.7972 29.846 21.5502 30.0429 21.2923C31.6455 19.1936 31.4018 16.2581 29.632 14.2984C27.8082 12.2787 24.673 12.1741 22.7187 14.0678Z" stroke="#898989" stroke-width="2.02054" stroke-linecap="round" stroke-linejoin="round"/>
</svg>
