<svg width="24" height="21" viewBox="0 0 24 21" fill="none" xmlns="http://www.w3.org/2000/svg">
<path d="M14.0693 3.06781L12.2054 4.87376L10.3416 3.06781C8.38724 1.17414 5.25209 1.2787 3.42823 3.29837C1.65847 5.25815 1.41482 8.19356 3.01738 10.2923C3.21432 10.5502 3.40795 10.7972 3.59223 11.0232C4.75867 12.4542 7.30368 14.9531 8.57882 16.2942C9.52091 17.285 10.3677 18.1113 11.0057 18.7132C11.6794 19.3488 12.7194 19.335 13.3944 18.7007C14.5707 17.5954 16.3747 15.8736 17.6453 14.5372C18.9205 13.1961 19.6522 12.4542 20.8186 11.0232C21.0029 10.7972 21.1965 10.5502 21.3935 10.2923C22.996 8.19356 22.7524 5.25815 20.9826 3.29837C19.1588 1.2787 16.0236 1.17414 14.0693 3.06781Z" fill="#0771F4" fill-opacity="0.56" stroke="#0771F4" stroke-opacity="0.56" stroke-width="2.02054" stroke-linecap="round" stroke-linejoin="round"/>
</svg>
