<svg width="41" height="40" viewBox="0 0 41 40" fill="none" xmlns="http://www.w3.org/2000/svg">
<g clip-path="url(#clip0_2014_10803)">
<path d="M13.8876 23.7896C10.9394 22.3155 10.9394 18.1083 13.8876 16.6342L22.5313 12.3124C22.9746 12.0907 23.4961 12.4131 23.4961 12.9086L23.4961 27.5152C23.4961 28.0108 22.9746 28.3331 22.5313 28.1115L13.8876 23.7896Z" stroke="#898989" stroke-width="2"/>
<path d="M27.8301 25.2119C28.6109 24.999 29.3329 24.5265 29.9082 23.8381C30.7119 22.8764 31.1634 21.572 31.1634 20.2119C31.1634 18.8518 30.7119 17.5474 29.9082 16.5857C29.3329 15.8973 28.6109 15.4249 27.8301 15.2119" stroke="#898989" stroke-width="1.66667" stroke-linecap="round"/>
<path d="M26.9954 19.7057C26.9954 19.525 27.1474 19.3728 27.3143 19.4419C27.4155 19.4838 27.5073 19.5452 27.5847 19.6226C27.6621 19.7 27.7235 19.7918 27.7653 19.8929C27.8072 19.994 27.8288 20.1024 27.8288 20.2118C27.8288 20.3213 27.8072 20.4296 27.7653 20.5307C27.7235 20.6318 27.6621 20.7237 27.5847 20.8011C27.5073 20.8785 27.4155 20.9399 27.3143 20.9817C27.1474 21.0509 26.9954 20.8987 26.9954 20.7179L26.9954 20.2118L26.9954 19.7057Z" fill="#898989" stroke="#898989" stroke-width="0.833333"/>
</g>
<defs>
<clipPath id="clip0_2014_10803">
<rect width="23.3333" height="23.3333" fill="white" transform="translate(9.49609 8.54541)"/>
</clipPath>
</defs>
</svg>
